{
  "accessors": [
    {
      "bufferView": 2,
      "componentType": 5126,
      "count": 577,
      "max": [
        2.856003761291504,
        2.1616029739379883,
        2.1616034507751465
      ],
      "min": [
        2.5733261108398438,
        -2.1616034507751465,
        -2.1616032123565674
      ],
      "type": "VEC3"
    },
    {
      "bufferView": 2,
      "byteOffset": 6924,
      "componentType": 5126,
      "count": 577,
      "max": [
        1.0,
        0.9985382556915283,
        0.9985382556915283
      ],
      "min": [
        0.04967217892408371,
        -0.9985381960868835,
        -0.9985382556915283
      ],
      "type": "VEC3"
    },
    {
      "bufferView": 3,
      "componentType": 5126,
      "count": 577,
      "max": [
        0.9984111189842224,
        0.9272822141647339,
        0.7652727365493774,
        1.0
      ],
      "min": [
        -0.9984216094017029,
        -0.03941865265369415,
        -0.17298124730587006,
        1.0
      ],
      "type": "VEC4"
    },
    {
      "bufferView": 1,
      "componentType": 5126,
      "count": 577,
      "max": [
        0.4070728123188019,
        0.8152668476104736
      ],
      "min": [
        0.10595569759607315,
        0.5140870809555054
      ],
      "type": "VEC2"
    },
    {
      "bufferView": 0,
      "componentType": 5125,
      "count": 3312,
      "type": "SCALAR"
    },
    {
      "bufferView": 2,
      "byteOffset": 13848,
      "componentType": 5126,
      "count": 2161,
      "max": [
        4.939730167388916,
        3.2829318046569824,
        3.154174327850342
      ],
      "min": [
        0.8979873657226563,
        -3.2829318046569824,
        -3.1541740894317627
      ],
      "type": "VEC3"
    },
    {
      "bufferView": 2,
      "byteOffset": 39780,
      "componentType": 5126,
      "count": 2161,
      "max": [
        1.0,
        1.0,
        1.0
      ],
      "min": [
        -1.0,
        -1.0,
        -1.0
      ],
      "type": "VEC3"
    },
    {
      "bufferView": 3,
      "byteOffset": 9232,
      "componentType": 5126,
      "count": 2161,
      "max": [
        0.9999998807907104,
        0.999999463558197,
        0.9999984502792358,
        1.0
      ],
      "min": [
        -0.9999012351036072,
        -0.9922827482223511,
        -0.9982798099517822,
        -1.0
      ],
      "type": "VEC4"
    },
    {
      "bufferView": 1,
      "byteOffset": 4616,
      "componentType": 5126,
      "count": 2161,
      "max": [
        0.9980080127716064,
        0.9529199600219727
      ],
      "min": [
        0.0019920319318771362,
        0.001902035903185606
      ],
      "type": "VEC2"
    },
    {
      "bufferView": 0,
      "byteOffset": 13248,
      "componentType": 5125,
      "count": 10140,
      "type": "SCALAR"
    },
    {
      "bufferView": 2,
      "byteOffset": 65712,
      "componentType": 5126,
      "count": 577,
      "max": [
        2.856003761291504,
        2.1616029739379883,
        2.1616034507751465
      ],
      "min": [
        2.5733261108398438,
        -2.1616034507751465,
        -2.1616032123565674
      ],
      "type": "VEC3"
    },
    {
      "bufferView": 2,
      "byteOffset": 72636,
      "componentType": 5126,
      "count": 577,
      "max": [
        1.0,
        0.9985382556915283,
        0.9985382556915283
      ],
      "min": [
        0.04967217892408371,
        -0.9985381960868835,
        -0.9985382556915283
      ],
      "type": "VEC3"
    },
    {
      "bufferView": 3,
      "byteOffset": 43808,
      "componentType": 5126,
      "count": 577,
      "max": [
        0.9984111189842224,
        0.9272822141647339,
        0.7652727365493774,
        1.0
      ],
      "min": [
        -0.9984216094017029,
        -0.03941865265369415,
        -0.17298124730587006,
        1.0
      ],
      "type": "VEC4"
    },
    {
      "bufferView": 1,
      "byteOffset": 21904,
      "componentType": 5126,
      "count": 577,
      "max": [
        0.4070728123188019,
        0.8152668476104736
      ],
      "min": [
        0.10595569759607315,
        0.5140870809555054
      ],
      "type": "VEC2"
    },
    {
      "bufferView": 0,
      "byteOffset": 53808,
      "componentType": 5125,
      "count": 3312,
      "type": "SCALAR"
    },
    {
      "bufferView": 2,
      "byteOffset": 79560,
      "componentType": 5126,
      "count": 2161,
      "max": [
        4.939730167388916,
        3.2829318046569824,
        3.154174327850342
      ],
      "min": [
        0.8979873657226563,
        -3.2829318046569824,
        -3.1541740894317627
      ],
      "type": "VEC3"
    },
    {
      "bufferView": 2,
      "byteOffset": 105492,
      "componentType": 5126,
      "count": 2161,
      "max": [
        1.0,
        1.0,
        1.0
      ],
      "min": [
        -1.0,
        -1.0,
        -1.0
      ],
      "type": "VEC3"
    },
    {
      "bufferView": 3,
      "byteOffset": 53040,
      "componentType": 5126,
      "count": 2161,
      "max": [
        0.9999998807907104,
        0.999999463558197,
        0.9999984502792358,
        1.0
      ],
      "min": [
        -0.9999012351036072,
        -0.9922827482223511,
        -0.9982798099517822,
        -1.0
      ],
      "type": "VEC4"
    },
    {
      "bufferView": 1,
      "byteOffset": 26520,
      "componentType": 5126,
      "count": 2161,
      "max": [
        0.9980080127716064,
        0.9529199600219727
      ],
      "min": [
        0.0019920319318771362,
        0.001902035903185606
      ],
      "type": "VEC2"
    },
    {
      "bufferView": 0,
      "byteOffset": 67056,
      "componentType": 5125,
      "count": 10140,
      "type": "SCALAR"
    },
    {
      "bufferView": 2,
      "byteOffset": 131424,
      "componentType": 5126,
      "count": 577,
      "max": [
        2.856003761291504,
        2.1616029739379883,
        2.1616034507751465
      ],
      "min": [
        2.5733261108398438,
        -2.1616034507751465,
        -2.1616032123565674
      ],
      "type": "VEC3"
    },
    {
      "bufferView": 2,
      "byteOffset": 138348,
      "componentType": 5126,
      "count": 577,
      "max": [
        1.0,
        0.9985382556915283,
        0.9985382556915283
      ],
      "min": [
        0.04967217892408371,
        -0.9985381960868835,
        -0.9985382556915283
      ],
      "type": "VEC3"
    },
    {
      "bufferView": 3,
      "byteOffset": 87616,
      "componentType": 5126,
      "count": 577,
      "max": [
        0.9984111189842224,
        0.9272822141647339,
        0.7652727365493774,
        1.0
      ],
      "min": [
        -0.9984216094017029,
        -0.03941865265369415,
        -0.17298124730587006,
        1.0
      ],
      "type": "VEC4"
    },
    {
      "bufferView": 1,
      "byteOffset": 43808,
      "componentType": 5126,
      "count": 577,
      "max": [
        0.4070728123188019,
        0.8152668476104736
      ],
      "min": [
        0.10595569759607315,
        0.5140870809555054
      ],
      "type": "VEC2"
    },
    {
      "bufferView": 0,
      "byteOffset": 107616,
      "componentType": 5125,
      "count": 3312,
      "type": "SCALAR"
    },
    {
      "bufferView": 2,
      "byteOffset": 145272,
      "componentType": 5126,
      "count": 2161,
      "max": [
        4.939730167388916,
        3.2829318046569824,
        3.154174327850342
      ],
      "min": [
        0.8979873657226563,
        -3.2829318046569824,
        -3.1541740894317627
      ],
      "type": "VEC3"
    },
    {
      "bufferView": 2,
      "byteOffset": 171204,
      "componentType": 5126,
      "count": 2161,
      "max": [
        1.0,
        1.0,
        1.0
      ],
      "min": [
        -1.0,
        -1.0,
        -1.0
      ],
      "type": "VEC3"
    },
    {
      "bufferView": 3,
      "byteOffset": 96848,
      "componentType": 5126,
      "count": 2161,
      "max": [
        0.9999998807907104,
        0.999999463558197,
        0.9999984502792358,
        1.0
      ],
      "min": [
        -0.9999012351036072,
        -0.9922827482223511,
        -0.9982798099517822,
        -1.0
      ],
      "type": "VEC4"
    },
    {
      "bufferView": 1,
      "byteOffset": 48424,
      "componentType": 5126,
      "count": 2161,
      "max": [
        0.9980080127716064,
        0.9529199600219727
      ],
      "min": [
        0.0019920319318771362,
        0.001902035903185606
      ],
      "type": "VEC2"
    },
    {
      "bufferView": 0,
      "byteOffset": 120864,
      "componentType": 5125,
      "count": 10140,
      "type": "SCALAR"
    }
  ],
  "asset": {
    "extras": {
      "author": "themaayur (https://sketchfab.com/themaayur)",
      "license": "SKETCHFAB Standard (https://sketchfab.com/licenses)",
      "source": "https://sketchfab.com/3d-models/traffic-light-3d-asset-c5263072913f47ccb3e0aa094278bb57",
      "title": "Traffic Light - 3D Asset"
    },
    "generator": "Sketchfab-16.21.0",
    "version": "2.0"
  },
  "bufferViews": [
    {
      "buffer": 0,
      "byteLength": 161424,
      "name": "floatBufferViews",
      "target": 34963
    },
    {
      "buffer": 0,
      "byteLength": 65712,
      "byteOffset": 161424,
      "byteStride": 8,
      "name": "floatBufferViews",
      "target": 34962
    },
    {
      "buffer": 0,
      "byteLength": 197136,
      "byteOffset": 227136,
      "byteStride": 12,
      "name": "floatBufferViews",
      "target": 34962
    },
    {
      "buffer": 0,
      "byteLength": 131424,
      "byteOffset": 424272,
      "byteStride": 16,
      "name": "floatBufferViews",
      "target": 34962
    }
  ],
  "buffers": [
    {
      "byteLength": 555696,
      "uri": "scene.bin"
    }
  ],
  "images": [
    {
      "uri": "textures/lambert4_baseColor.png"
    },
    {
      "uri": "textures/lambert4_metallicRoughness.png"
    },
    {
      "uri": "textures/lambert4_emissive.png"
    },
    {
      "uri": "textures/lambert4_normal.png"
    },
    {
      "uri": "textures/lambert1_baseColor.png"
    },
    {
      "uri": "textures/lambert1_metallicRoughness.png"
    },
    {
      "uri": "textures/lambert1_normal.png"
    },
    {
      "uri": "textures/lambert6_baseColor.png"
    },
    {
      "uri": "textures/lambert6_metallicRoughness.png"
    },
    {
      "uri": "textures/lambert6_emissive.png"
    },
    {
      "uri": "textures/lambert6_normal.png"
    },
    {
      "uri": "textures/lambert5_baseColor.png"
    },
    {
      "uri": "textures/lambert5_metallicRoughness.png"
    },
    {
      "uri": "textures/lambert5_normal.png"
    },
    {
      "uri": "textures/lambert8_baseColor.png"
    },
    {
      "uri": "textures/lambert8_metallicRoughness.png"
    },
    {
      "uri": "textures/lambert8_emissive.png"
    },
    {
      "uri": "textures/lambert8_normal.png"
    },
    {
      "uri": "textures/lambert7_baseColor.png"
    },
    {
      "uri": "textures/lambert7_metallicRoughness.png"
    },
    {
      "uri": "textures/lambert7_normal.png"
    }
  ],
  "materials": [
    {
      "doubleSided": true,
      "emissiveFactor": [
        1.0,
        1.0,
        1.0
      ],
      "emissiveTexture": {
        "index": 2
      },
      "name": "lambert4",
      "normalTexture": {
        "index": 3
      },
      "pbrMetallicRoughness": {
        "baseColorTexture": {
          "index": 0
        },
        "metallicRoughnessTexture": {
          "index": 1
        }
      }
    },
    {
      "doubleSided": true,
      "name": "lambert1",
      "normalTexture": {
        "index": 6
      },
      "pbrMetallicRoughness": {
        "baseColorTexture": {
          "index": 4
        },
        "metallicRoughnessTexture": {
          "index": 5
        }
      }
    },
    {
      "doubleSided": true,
      "emissiveFactor": [
        1.0,
        1.0,
        1.0
      ],
      "emissiveTexture": {
        "index": 9
      },
      "name": "lambert6",
      "normalTexture": {
        "index": 10
      },
      "pbrMetallicRoughness": {
        "baseColorTexture": {
          "index": 7
        },
        "metallicRoughnessTexture": {
          "index": 8
        }
      }
    },
    {
      "doubleSided": true,
      "name": "lambert5",
      "normalTexture": {
        "index": 13
      },
      "pbrMetallicRoughness": {
        "baseColorTexture": {
          "index": 11
        },
        "metallicRoughnessTexture": {
          "index": 12
        }
      }
    },
    {
      "doubleSided": true,
      "emissiveFactor": [
        1.0,
        1.0,
        1.0
      ],
      "emissiveTexture": {
        "index": 16
      },
      "name": "lambert8",
      "normalTexture": {
        "index": 17
      },
      "pbrMetallicRoughness": {
        "baseColorTexture": {
          "index": 14
        },
        "metallicRoughnessTexture": {
          "index": 15
        }
      }
    },
    {
      "doubleSided": true,
      "name": "lambert7",
      "normalTexture": {
        "index": 20
      },
      "pbrMetallicRoughness": {
        "baseColorTexture": {
          "index": 18
        },
        "metallicRoughnessTexture": {
          "index": 19
        }
      }
    }
  ],
  "meshes": [
    {
      "name": "pCube1_lambert4_0",
      "primitives": [
        {
          "attributes": {
            "NORMAL": 1,
            "POSITION": 0,
            "TANGENT": 2,
            "TEXCOORD_0": 3
          },
          "indices": 4,
          "material": 0,
          "mode": 4
        }
      ]
    },
    {
      "name": "pCube1_lambert1_0",
      "primitives": [
        {
          "attributes": {
            "NORMAL": 6,
            "POSITION": 5,
            "TANGENT": 7,
            "TEXCOORD_0": 8
          },
          "indices": 9,
          "material": 1,
          "mode": 4
        }
      ]
    },
    {
      "name": "pCube2_lambert6_0",
      "primitives": [
        {
          "attributes": {
            "NORMAL": 11,
            "POSITION": 10,
            "TANGENT": 12,
            "TEXCOORD_0": 13
          },
          "indices": 14,
          "material": 2,
          "mode": 4
        }
      ]
    },
    {
      "name": "pCube2_lambert5_0",
      "primitives": [
        {
          "attributes": {
            "NORMAL": 16,
            "POSITION": 15,
            "TANGENT": 17,
            "TEXCOORD_0": 18
          },
          "indices": 19,
          "material": 3,
          "mode": 4
        }
      ]
    },
    {
      "name": "pCube3_lambert8_0",
      "primitives": [
        {
          "attributes": {
            "NORMAL": 21,
            "POSITION": 20,
            "TANGENT": 22,
            "TEXCOORD_0": 23
          },
          "indices": 24,
          "material": 4,
          "mode": 4
        }
      ]
    },
    {
      "name": "pCube3_lambert7_0",
      "primitives": [
        {
          "attributes": {
            "NORMAL": 26,
            "POSITION": 25,
            "TANGENT": 27,
            "TEXCOORD_0": 28
          },
          "indices": 29,
          "material": 5,
          "mode": 4
        }
      ]
    }
  ],
  "nodes": [
    {
      "children": [
        1
      ],
      "matrix": [
        1.0,
        0.0,
        0.0,
        0.0,
        0.0,
        2.220446049250313e-16,
        -1.0,
        0.0,
        0.0,
        1.0,
        2.220446049250313e-16,
        0.0,
        0.0,
        0.0,
        0.0,
        1.0
      ],
      "name": "Sketchfab_model"
    },
    {
      "children": [
        2
      ],
      "matrix": [
        0.009999999776482582,
        0.0,
        0.0,
        0.0,
        0.0,
        0.0,
        0.009999999776482582,
        0.0,
        0.0,
        -0.009999999776482582,
        0.0,
        0.0,
        0.0,
        0.0,
        0.0,
        1.0
      ],
      "name": "dcf76dbbe0d741a8bc977bb533bd50de.fbx"
    },
    {
      "children": [
        3,
        6,
        8,
        11
      ],
      "name": "RootNode"
    },
    {
      "children": [
        4,
        5
      ],
      "matrix": [
        1.0,
        0.0,
        0.0,
        0.0,
        0.0,
        1.0,
        0.0,
        0.0,
        0.0,
        0.0,
        1.0,
        0.0,
        2.8907980918884277,
        4.037024974822998,
        -2.0173730850219727,
        1.0
      ],
      "name": "pCube1"
    },
    {
      "mesh": 0,
      "name": "pCube1_lambert4_0"
    },
    {
      "mesh": 1,
      "name": "pCube1_lambert1_0"
    },
    {
      "children": [
        7
      ],
      "matrix": [
        1.0,
        0.0,
        0.0,
        0.0,
        0.0,
        1.0,
        0.0,
        0.0,
        0.0,
        0.0,
        1.0,
        0.0,
        -1000.0999755859375,
        0.0,
        0.0,
        1.0
      ],
      "name": "left"
    },
    {
      "name": "Object_7"
    },
    {
      "children": [
        9,
        10
      ],
      "matrix": [
        1.0,
        0.0,
        0.0,
        0.0,
        0.0,
        1.0,
        0.0,
        0.0,
        0.0,
        0.0,
        1.0,
        0.0,
        2.8907980918884277,
        10.638561248779297,
        -2.0173730850219727,
        1.0
      ],
      "name": "pCube2"
    },
    {
      "mesh": 2,
      "name": "pCube2_lambert6_0"
    },
    {
      "mesh": 3,
      "name": "pCube2_lambert5_0"
    },
    {
      "children": [
        12,
        13
      ],
      "matrix": [
        1.0,
        0.0,
        0.0,
        0.0,
        0.0,
        1.0,
        0.0,
        0.0,
        0.0,
        0.0,
        1.0,
        0.0,
        2.8907980918884277,
        17.240097045898438,
        -2.0173730850219727,
        1.0
      ],
      "name": "pCube3"
    },
    {
      "mesh": 4,
      "name": "pCube3_lambert8_0"
    },
    {
      "mesh": 5,
      "name": "pCube3_lambert7_0"
    }
  ],
  "samplers": [
    {
      "magFilter": 9729,
      "minFilter": 9987,
      "wrapS": 10497,
      "wrapT": 10497
    }
  ],
  "scene": 0,
  "scenes": [
    {
      "name": "Sketchfab_Scene",
      "nodes": [
        0
      ]
    }
  ],
  "textures": [
    {
      "sampler": 0,
      "source": 0
    },
    {
      "sampler": 0,
      "source": 1
    },
    {
      "sampler": 0,
      "source": 2
    },
    {
      "sampler": 0,
      "source": 3
    },
    {
      "sampler": 0,
      "source": 4
    },
    {
      "sampler": 0,
      "source": 5
    },
    {
      "sampler": 0,
      "source": 6
    },
    {
      "sampler": 0,
      "source": 7
    },
    {
      "sampler": 0,
      "source": 8
    },
    {
      "sampler": 0,
      "source": 9
    },
    {
      "sampler": 0,
      "source": 10
    },
    {
      "sampler": 0,
      "source": 11
    },
    {
      "sampler": 0,
      "source": 12
    },
    {
      "sampler": 0,
      "source": 13
    },
    {
      "sampler": 0,
      "source": 14
    },
    {
      "sampler": 0,
      "source": 15
    },
    {
      "sampler": 0,
      "source": 16
    },
    {
      "sampler": 0,
      "source": 17
    },
    {
      "sampler": 0,
      "source": 18
    },
    {
      "sampler": 0,
      "source": 19
    },
    {
      "sampler": 0,
      "source": 20
    }
  ]
}
